<?xml version="1.0" encoding="utf-8"?>
<!-- Generator: Adobe Illustrator 26.2.1, SVG Export Plug-In . SVG Version: 6.00 Build 0)  -->
<svg version="1.1" id="_x2018_ÎÓÈ_x5F_1" xmlns="http://www.w3.org/2000/svg" xmlns:xlink="http://www.w3.org/1999/xlink"
	 x="0px" y="0px" viewBox="0 0 3000 2000" style="enable-background:new 0 0 3000 2000;" xml:space="preserve">
<style type="text/css">
	.st0{fill:#F3B82F;}
	.st1{fill:#31313B;stroke:#000000;stroke-width:3;stroke-miterlimit:10;}
</style>
<g>
	<polygon class="st0" points="1947.9,317.7 1883.8,317.7 1468.3,919.5 1199.7,617 1135.6,617 1143.2,667.2 976.1,815.6 
		1448.1,1422.1 1510.7,1422.1 2189.2,494.6 	"/>
</g>
<g>
	<defs>
		<polygon id="SVGID_1_" points="1447.6,1418.9 911.9,815.6 1135.6,617 1425.3,943.3 1883.8,317.7 2125.1,494.6 		"/>
	</defs>
	<use xlink:href="#SVGID_1_"  style="overflow:visible;fill:#FFFFFF;"/>
	<clipPath id="SVGID_00000125566615048176441500000014645437196951148186_">
		<use xlink:href="#SVGID_1_"  style="overflow:visible;"/>
	</clipPath>
</g>
<g>
	<g>
		<path class="st1" d="M1447.8,1422.2l-1.7-1.9L909,815.5l226.8-201.4l1.4,1.6l288,324.3l458.2-625.1L2128,494.1l-1.2,1.7
			L1447.8,1422.2z M914.9,815.8l532.6,599.7L2122.2,495l-237.9-174.4l-458.8,625.9l-290-326.6L914.9,815.8z"/>
	</g>
</g>
</svg>
